<svg width="24" height="24" viewBox="0 0 24 24" fill="none" xmlns="http://www.w3.org/2000/svg">
<path fill-rule="evenodd" clip-rule="evenodd" d="M14.0267 4.49791C14.4265 4.60598 14.6631 5.01774 14.555 5.41761L10.8912 18.9737C10.7831 19.3736 10.3714 19.6101 9.97149 19.5021C9.57162 19.394 9.33508 18.9822 9.44315 18.5823L13.107 5.02625C13.215 4.62638 13.6268 4.38983 14.0267 4.49791ZM16.2096 7.3665C16.4899 7.06159 16.9644 7.04169 17.2693 7.32205L21.7563 11.4478C21.9108 11.5899 21.9987 11.7901 21.9987 11.9999C21.9987 12.2098 21.9108 12.41 21.7563 12.552L17.2693 16.6778C16.9644 16.9581 16.4899 16.9382 16.2096 16.6333C15.9292 16.3284 15.9491 15.854 16.254 15.5736L20.1406 11.9999L16.254 8.42623C15.9491 8.14587 15.9292 7.67141 16.2096 7.3665ZM7.78816 7.36664C8.06852 7.67155 8.04862 8.146 7.74371 8.42636L3.8571 12L7.74371 15.5737C8.04862 15.8541 8.06852 16.3285 7.78816 16.6335C7.5078 16.9384 7.03334 16.9583 6.72843 16.6779L2.24138 12.5521C2.08692 12.4101 1.99902 12.2099 1.99902 12C1.99902 11.7902 2.08693 11.59 2.24139 11.4479L6.72843 7.32218C7.03334 7.04182 7.5078 7.06172 7.78816 7.36664Z" fill="#555555"/>
</svg>
